<svg viewBox="0 0 303 157" xmlns="http://www.w3.org/2000/svg"><path d="M0 125.8L64.6 2.72h28.56l64.6 123.08h-30.77l-13.26-25.5H43.52l-13.09 25.5H0zm78.71-96.56L53.72 79.05h49.98L78.71 29.24zm140.82 99.28c-20.57 0-34.85-3.57-45.05-7.65v-20.4c10.88 3.74 26.18 7.48 43.52 7.48 21.08 0 32.81-7.82 32.81-17.68 0-9.52-10.71-18.87-33.83-18.87h-15.47V51.68h15.47c19.38 0 28.05-6.46 28.05-15.64 0-8.84-11.73-14.96-27.54-14.96-13.09 0-29.07 3.57-39.95 8.5V9.18C187.4 4.08 202.36 0 219.36 0c33.32 0 53.89 13.43 53.89 33.49 0 11.56-7.48 21.76-22.95 27.37 19.89 5.78 29.24 16.66 29.24 30.09 0 20.4-19.72 37.57-60.01 37.57z" fill="currentColor"/></svg>