<svg viewBox="0 0 303 157" xmlns="http://www.w3.org/2000/svg"><path d="M0 125.8L64.6 2.72h28.56l64.6 123.08h-30.77l-13.26-25.5H43.52l-13.09 25.5H0zm78.71-96.56L53.72 79.05h49.98L78.71 29.24zm145.81 99.28c-38.59 0-59.5-20.91-59.5-58.99C165.02 25.5 187.97 0 237.61 0c14.62 0 28.05 3.06 36.89 6.46V27.2c-9.18-3.06-22.95-6.12-36.21-6.12-26.35 0-40.12 11.05-43.86 30.77 8.84-5.1 19.89-8.33 32.98-8.33 35.19 0 55.93 15.81 55.93 41.65 0 22.95-19.72 43.35-58.82 43.35zm1.02-64.26c-12.92 0-23.46 2.21-33.15 6.97v1.19c0 22.27 11.73 36.38 32.98 36.38 19.72 0 29.41-11.22 29.41-23.63 0-13.6-11.22-20.91-29.24-20.91z" fill="currentColor"/></svg>