<svg viewBox="0 0 303 157" xmlns="http://www.w3.org/2000/svg"><path d="M61.48 77.393c-1.13.552-2.447 1.05-3.95 1.49a47.335 47.335 0 01-4.814 1.132c-1.707.313-3.48.556-5.318.727a58.34 58.34 0 01-5.439.258c-2.794 0-5.352-.233-7.674-.7-2.322-.465-4.408-1.125-6.258-1.978-1.85-.852-3.465-1.886-4.843-3.1a17.782 17.782 0 01-3.446-4.076 17.906 17.906 0 01-2.058-4.877 21.962 21.962 0 01-.68-5.53c0-1.815.208-3.591.624-5.327a19.156 19.156 0 011.91-4.904 18.884 18.884 0 013.24-4.233c1.304-1.288 2.84-2.398 4.61-3.33 1.77-.933 3.784-1.657 6.044-2.172 2.26-.515 4.769-.773 7.525-.773 2.794 0 5.33.236 7.61.708 2.278.473 4.308 1.138 6.09 1.997 1.782.859 3.322 1.892 4.62 3.1a17.239 17.239 0 013.222 4.031 17.891 17.891 0 011.89 4.785c.41 1.71.615 3.499.615 5.364 0 .356-.006.696-.019 1.021a43.73 43.73 0 01-.046.948c-.019.306-.044.595-.075.865-.03.27-.065.527-.102.773H29.126c.149 1.3.53 2.472 1.145 3.514.615 1.043 1.493 1.93 2.636 2.66 1.142.73 2.57 1.29 4.284 1.683s3.756.59 6.128.59a58.016 58.016 0 009.974-.874 51.088 51.088 0 004.415-.976 33.805 33.805 0 003.772-1.242v8.446zM53 56c-.28-1.377-.753-2.567-1.418-3.572a8.734 8.734 0 00-2.489-2.493c-.994-.657-2.137-1.144-3.43-1.46-1.293-.317-2.696-.475-4.209-.475-1.512 0-2.909.158-4.19.474-1.28.317-2.412.804-3.394 1.46a8.718 8.718 0 00-2.461 2.494C30.75 53.433 30.28 54.623 30 56h23zm20 6V51h27v11H73zm72 16.944c-.756.262-1.65.517-2.683.766-1.033.25-2.132.47-3.297.664a49.634 49.634 0 01-3.581.458 38.495 38.495 0 01-3.515.168c-2.985 0-5.555-.312-7.709-.935s-3.927-1.551-5.319-2.785c-1.392-1.233-2.419-2.766-3.08-4.598-.661-1.832-.992-3.956-.992-6.374V49.393H106v-8.58h9.278L116.525 31h10.147v9.813h18.026v8.58h-18.026v15.532c0 1.209.129 2.234.387 3.075.258.841.69 1.526 1.294 2.056.605.53 1.402.916 2.39 1.159.99.243 2.208.364 3.657.364 1.045 0 2.078-.04 3.099-.121a53.878 53.878 0 002.919-.308c.926-.125 1.78-.268 2.56-.43a22.35 22.35 0 002.022-.505v8.729zM156 80V41.075h10.95l.467 7.133a17.931 17.931 0 012.242-3.298c.86-1 1.86-1.865 3-2.594 1.14-.729 2.426-1.297 3.858-1.705 1.433-.407 3.04-.611 4.821-.611.972 0 1.965.059 2.98.176 1.016.117 1.91.287 2.682.51v10.32a23.047 23.047 0 00-1.439-.242 40.301 40.301 0 00-1.672-.194 32.556 32.556 0 00-1.766-.12 41.287 41.287 0 00-1.7-.038 22.12 22.12 0 00-3.018.195c-.94.13-1.816.309-2.626.537a14.522 14.522 0 00-4.12 1.871 9.947 9.947 0 00-2.644 2.548V80H156zm62 1c-2.8 0-5.388-.205-7.763-.615-2.375-.41-4.525-1.016-6.45-1.818-1.924-.802-3.62-1.787-5.088-2.956a17.026 17.026 0 01-3.692-4.04c-.993-1.523-1.742-3.216-2.248-5.076-.506-1.86-.759-3.874-.759-6.04 0-2.07.253-4.01.759-5.821a17.803 17.803 0 012.248-4.995 17.757 17.757 0 013.692-4.066c1.468-1.194 3.164-2.204 5.089-3.03 1.924-.826 4.074-1.457 6.449-1.891C212.612 40.217 215.2 40 218 40c2.813 0 5.41.205 7.79.615 2.382.41 4.538 1.016 6.468 1.818 1.931.802 3.627 1.787 5.09 2.956a16.945 16.945 0 013.673 4.04c.987 1.523 1.73 3.213 2.23 5.067s.749 3.865.749 6.032c0 2.068-.253 4.011-.759 5.83a17.648 17.648 0 01-2.248 4.993 18.013 18.013 0 01-3.692 4.067c-1.468 1.2-3.164 2.213-5.089 3.039-1.924.826-4.074 1.457-6.449 1.891-2.375.435-4.963.652-7.763.652zm.99-9c2.104 0 4.016-.276 5.738-.828 1.721-.552 3.195-1.343 4.422-2.372a10.49 10.49 0 002.845-3.767c.67-1.483 1.005-3.148 1.005-4.996 0-1.848-.335-3.513-1.005-4.995a10.664 10.664 0 00-2.845-3.786c-1.227-1.042-2.7-1.845-4.422-2.41-1.722-.564-3.634-.846-5.737-.846-2.091 0-3.997.276-5.719.828-1.721.552-3.195 1.346-4.422 2.381a10.598 10.598 0 00-2.845 3.768c-.67 1.476-1.005 3.138-1.005 4.986 0 1.848.335 3.516 1.005 5.004a10.643 10.643 0 002.845 3.796c1.227 1.042 2.7 1.842 4.422 2.4 1.722.558 3.628.837 5.719.837zm72.13 8V58.68c0-1.624-.19-3.036-.572-4.236-.382-1.2-.982-2.197-1.801-2.99-.82-.794-1.87-1.388-3.15-1.782-1.281-.393-2.82-.59-4.619-.59a27.746 27.746 0 00-7.427.978 24.66 24.66 0 00-3.011 1.034c-.936.393-1.823.806-2.66 1.236V80H256V41.218h10.383l.831 4.449a20.067 20.067 0 013.27-2.381 22.369 22.369 0 013.843-1.782 25.726 25.726 0 014.35-1.116 28.816 28.816 0 014.795-.388c1.724 0 3.406.105 5.044.314 1.638.209 3.18.563 4.628 1.061a16.027 16.027 0 013.981 2.012 12.228 12.228 0 013.113 3.175c.868 1.274 1.546 2.784 2.032 4.532.487 1.747.73 3.771.73 6.073V80h-11.88z"/></svg>