<svg viewBox="0 0 303 157" xmlns="http://www.w3.org/2000/svg"><path d="M81.04 128.52C32.25 128.52 11 99.45 11 64.26 11 29.75 33.61 0 81.04 0c48.79 0 70.04 29.07 70.04 64.26 0 25.5-12.41 48.45-37.91 58.65 3.06 1.19 6.12 3.06 10.03 6.29l24.48 20.57h-29.75c-6.12 0-7.48-1.36-11.22-4.42l-20.57-17c-1.7 0-3.4.17-5.1.17zm0-21.59c30.09 0 41.82-19.55 41.82-42.67s-11.73-42.67-41.82-42.67-41.82 19.55-41.82 42.67 11.73 42.67 41.82 42.67zm139.35 21.59c-20.57 0-34.85-3.57-45.05-7.65v-20.4c10.88 3.74 26.18 7.48 43.52 7.48 21.08 0 32.81-7.82 32.81-17.68 0-9.52-10.71-18.87-33.83-18.87h-15.47V51.68h15.47c19.38 0 28.05-6.46 28.05-15.64 0-8.84-11.73-14.96-27.54-14.96-13.09 0-29.07 3.57-39.95 8.5V9.18C188.26 4.08 203.22 0 220.22 0c33.32 0 53.89 13.43 53.89 33.49 0 11.56-7.48 21.76-22.95 27.37 19.89 5.78 29.24 16.66 29.24 30.09 0 20.4-19.72 37.57-60.01 37.57z" fill="currentColor"/></svg>