<svg viewBox="0 0 303 157" xmlns="http://www.w3.org/2000/svg"><path d="M81.04 128.52C32.25 128.52 11 99.45 11 64.26 11 29.75 33.61 0 81.04 0c48.79 0 70.04 29.07 70.04 64.26 0 25.5-12.41 48.45-37.91 58.65 3.06 1.19 6.12 3.06 10.03 6.29l24.48 20.57h-29.75c-6.12 0-7.48-1.36-11.22-4.42l-20.57-17c-1.7 0-3.4.17-5.1.17zm0-21.59c30.09 0 41.82-19.55 41.82-42.67s-11.73-42.67-41.82-42.67-41.82 19.55-41.82 42.67 11.73 42.67 41.82 42.67zm140.2 21.59c-20.57 0-34.85-3.57-45.05-7.65v-20.4c10.88 3.74 26.18 7.48 43.52 7.48 24.99 0 34.34-7.82 34.34-17.85 0-18.7-48.28-21.42-74.46-21.25l2.72-66.13h93.5v20.06h-67.83l-1.02 25.5c31.79 1.7 75.48 8.67 75.48 40.46 0 21.93-18.19 39.78-61.2 39.78z" fill="currentColor"/></svg>