<svg viewBox="0 0 303 157" xmlns="http://www.w3.org/2000/svg"><path d="M81.04 128.52C32.25 128.52 11 99.45 11 64.26 11 29.75 33.61 0 81.04 0c48.79 0 70.04 29.07 70.04 64.26 0 25.5-12.41 48.45-37.91 58.65 3.06 1.19 6.12 3.06 10.03 6.29l24.48 20.57h-29.75c-6.12 0-7.48-1.36-11.22-4.42l-20.57-17c-1.7 0-3.4.17-5.1.17zm0-21.59c30.09 0 41.82-19.55 41.82-42.67s-11.73-42.67-41.82-42.67-41.82 19.55-41.82 42.67 11.73 42.67 41.82 42.67zm105.73 18.87l63.58-103.02H173V2.72h107.78v17.85L215.5 125.8h-28.73z" fill="currentColor"/></svg>