<svg viewBox="0 0 303 157" xmlns="http://www.w3.org/2000/svg"><path d="M81.04 128.52C32.25 128.52 11 99.45 11 64.26 11 29.75 33.61 0 81.04 0c48.79 0 70.04 29.07 70.04 64.26 0 25.5-12.41 48.45-37.91 58.65 3.06 1.19 6.12 3.06 10.03 6.29l24.48 20.57h-29.75c-6.12 0-7.48-1.36-11.22-4.42l-20.57-17c-1.7 0-3.4.17-5.1.17zm0-21.59c30.09 0 41.82-19.55 41.82-42.67s-11.73-42.67-41.82-42.67-41.82 19.55-41.82 42.67 11.73 42.67 41.82 42.67zm148.83 21.59c-42.33 0-62.05-16.83-62.05-36.38 0-13.94 9.69-25.67 31.11-31.45-16.32-5.1-24.65-14.62-24.65-26.69 0-20.57 20.23-34 55.59-34 35.7 0 55.76 13.43 55.76 34 0 12.07-7.99 21.59-24.14 26.69 21.08 5.78 30.43 17.51 30.43 31.45 0 19.55-19.72 36.38-62.05 36.38zm0-19.72c23.12 0 33.83-9.86 33.83-19.04s-9.86-18.87-33.83-18.87c-23.63 0-33.83 9.69-33.83 18.87 0 9.18 10.54 19.04 33.83 19.04zm0-56.61c19.38 0 28.05-6.8 28.05-15.98s-9.86-17-28.05-17-28.05 7.82-28.05 17 8.67 15.98 28.05 15.98z" fill="currentColor"/></svg>