<svg viewBox="0 0 303 157" xmlns="http://www.w3.org/2000/svg"><path d="M63.4 71.8c-1.4 0-2.4-.2-3-.5-.6-.4-1.3-.8-2.1-1.5L49 62.1c-1.2.1-1.9.1-2.3.1-6.6 0-12.3-1.2-17-3.5-4.7-2.3-8.4-5.7-10.9-10.1C16.2 44.1 15 39 15 33.1c0-5.7 1.3-10.8 3.9-15.3 2.6-4.5 6.3-7.9 11-10.3C34.7 5.1 40.3 4 46.7 4c6.6 0 12.3 1.2 17 3.5 4.7 2.3 8.4 5.7 10.9 10.1 2.5 4.4 3.8 9.6 3.8 15.5 0 6.2-1.5 11.6-4.5 16.3-3 4.7-7.2 8.1-12.7 10.3 1.4.5 2.9 1.5 4.5 2.9l11.1 9.3H63.4zM46.7 52.4c4 0 7.4-.8 10.3-2.3 2.8-1.5 5-3.7 6.5-6.7C65 40.5 65.7 37 65.7 33s-.7-7.4-2.2-10.4c-1.5-2.9-3.6-5.2-6.5-6.7-2.8-1.5-6.2-2.3-10.3-2.3-4 0-7.4.8-10.2 2.3-2.8 1.5-5 3.7-6.5 6.7-1.5 2.9-2.2 6.4-2.2 10.4s.7 7.4 2.2 10.4c1.5 2.9 3.6 5.2 6.5 6.7 2.8 1.5 6.2 2.3 10.2 2.3zm83.5-21c3 .8 5.5 1.9 7.6 3.3 2.1 1.4 3.6 3 4.7 4.8 1 1.9 1.6 3.9 1.6 6.1 0 3.3-1.1 6.2-3.4 8.7-2.3 2.5-5.5 4.5-9.7 5.8-4.2 1.3-9.2 2-14.9 2-5.7 0-10.7-.7-14.9-2-4.2-1.3-7.5-3.3-9.7-5.8-2.3-2.5-3.4-5.4-3.4-8.7 0-2.2.5-4.3 1.6-6.1 1.1-1.9 2.7-3.5 4.8-4.8 2.1-1.4 4.7-2.5 7.7-3.3-2.4-.8-4.5-1.7-6.1-2.9-1.7-1.2-2.9-2.6-3.8-4.1-.8-1.5-1.3-3.2-1.3-5.1 0-3.1 1-5.9 3-8.2s4.9-4.1 8.7-5.3C106.5 4.6 111 4 116.1 4c5.2 0 9.7.6 13.5 1.9 3.8 1.2 6.7 3 8.7 5.3 2 2.3 3 5.1 3 8.2 0 1.9-.4 3.6-1.2 5.1-.8 1.5-2.1 2.9-3.7 4.1-1.8 1.1-3.8 2.1-6.2 2.8zm1.1 13.2c0-1.6-.6-3.1-1.9-4.5-1.3-1.3-3.1-2.3-5.3-3-2.3-.7-5-1.1-8.1-1.1-3.1 0-5.8.4-8 1.1-2.3.7-4.1 1.7-5.4 3.1-1.3 1.3-1.9 2.8-1.9 4.4 0 1.6.6 3.1 1.9 4.4 1.3 1.3 3.1 2.4 5.4 3.1 2.3.7 5 1.1 8 1.1s5.7-.4 8-1.1c2.3-.7 4.1-1.8 5.4-3.1 1.2-1.3 1.9-2.8 1.9-4.4zm-2.7-24.2c0-1.5-.5-2.8-1.6-4-1.1-1.2-2.5-2.1-4.5-2.7-1.9-.6-4.1-1-6.7-1-2.5 0-4.7.3-6.6.9-1.9.6-3.4 1.5-4.5 2.7-1.1 1.2-1.6 2.5-1.6 4s.5 2.8 1.5 3.9 2.4 1.9 4.3 2.5c1.9.6 4.2.9 6.9.9s5-.3 6.9-.8c1.9-.6 3.3-1.4 4.3-2.5 1.1-1.1 1.6-2.4 1.6-3.9zm-77 94.6c-1.9.9-4.4 1.7-7.5 2.3-3.1.6-6.2.9-9.4.9-4.5 0-8.3-.7-11.6-2.1-3.2-1.4-5.7-3.5-7.4-6.1s-2.6-5.8-2.6-9.4c0-3.6.8-6.7 2.5-9.5s4.1-4.9 7.2-6.4 6.8-2.2 11-2.2c4.4 0 8.1.7 11.2 2.1 3.1 1.4 5.5 3.4 7.1 6 1.6 2.6 2.4 5.7 2.4 9.3 0 1.2-.1 2.2-.2 3.1H23.6c.2 1.6.8 3 1.8 4.1 1 1.1 2.3 1.9 4.1 2.4 1.8.5 3.9.8 6.4.8 2.8 0 5.6-.2 8.4-.7 2.8-.5 5.2-1.1 7.3-2v7.4zM44 96.6c-.3-1.5-.9-2.8-1.8-3.8s-2-1.8-3.4-2.3c-1.4-.5-3.1-.8-4.9-.8s-3.5.3-4.9.8c-1.4.5-2.5 1.3-3.4 2.3-.9 1-1.5 2.3-1.8 3.8H44zm17.1 5.4v-8.9h23.3v8.9H61.1zm61.9 14.2c-1.4.5-3.1.9-5.3 1.3s-4.1.5-5.9.5c-3.3 0-6-.5-8.2-1.4-2.1-.9-3.8-2.3-4.8-4.2s-1.6-4.2-1.6-7.1V90.8h-7.5v-7.4h7.9l1.1-8.4h8.7v8.4h15.4v7.4h-15.4v13.3c0 1.4.2 2.6.6 3.4.4.8 1.1 1.4 2 1.8.9.4 2.2.6 3.9.6 1.6 0 3.2-.1 4.9-.3s3.1-.5 4.2-.8v7.4zm8.2 1V83.5h9.4l.4 6.2c1.2-2.4 2.9-4.1 4.9-5.3s4.4-1.8 7.1-1.8c1.9 0 3.5.2 4.9.6v8.9c-1.5-.3-3.4-.5-5.7-.5-2.4 0-4.6.4-6.4 1.2-1.9.8-3.3 1.9-4.3 3.3v21.1h-10.3zm54 1c-4.8 0-8.9-.7-12.3-2.1-3.4-1.4-6-3.4-7.7-6.1s-2.6-5.9-2.6-9.7c0-3.7.9-6.9 2.7-9.6 1.8-2.7 4.4-4.7 7.8-6.2 3.4-1.4 7.4-2.1 12.1-2.1 4.8 0 8.9.7 12.3 2.1 3.4 1.4 6 3.4 7.7 6.1 1.8 2.7 2.6 5.9 2.6 9.7 0 3.7-.9 6.9-2.7 9.6-1.8 2.7-4.4 4.8-7.8 6.2-3.4 1.4-7.5 2.1-12.1 2.1zm0-7.6c2.4 0 4.5-.4 6.3-1.3 1.8-.8 3.2-2 4.2-3.6s1.5-3.4 1.5-5.5-.5-3.9-1.5-5.5-2.4-2.8-4.2-3.6-3.9-1.3-6.3-1.3-4.5.4-6.3 1.3c-1.8.8-3.2 2-4.2 3.6s-1.5 3.4-1.5 5.5.5 3.9 1.5 5.5 2.4 2.8 4.2 3.6c1.8.9 3.9 1.3 6.3 1.3zm62.7 6.6V98.6c0-2-.3-3.5-.9-4.8-.6-1.2-1.6-2.1-2.9-2.7-1.3-.6-3-.9-5-.9s-4 .2-5.8.7c-1.8.4-3.7 1.2-5.6 2.1v24h-10.4V83.5h9.1l.7 3.9c1.8-1.6 3.9-2.8 6.3-3.7 2.4-.8 5.1-1.3 7.9-1.3 3.9 0 7 .5 9.5 1.6s4.4 2.7 5.6 4.9 1.9 5 1.9 8.3V117h-10.4z" id="Ebene_2"/></svg>